<svg width="30" height="30" viewBox="0 0 30 30" fill="none" xmlns="http://www.w3.org/2000/svg">
<rect x="0.75" y="0.75" width="29.25" height="29.25" rx="8" fill="white"/>
<path d="M23.8477 0H6.15234C2.75994 0 0 2.75994 0 6.15234V23.8477C0 27.2401 2.75994 30 6.15234 30H23.8477C27.2401 30 30 27.2401 30 23.8477V6.15234C30 2.75994 27.2401 0 23.8477 0ZM9.23725 23.1161C8.96625 23.5855 8.47283 23.8482 7.96617 23.8482C7.71779 23.8482 7.46631 23.7851 7.23621 23.6523C6.53672 23.2485 6.29619 22.3508 6.70002 21.6513L6.98812 21.1523H10.371L9.23725 23.1161ZM6.47461 19.9805C5.66689 19.9805 5.00977 19.3233 5.00977 18.5156C5.00977 17.7079 5.66689 17.0508 6.47461 17.0508H9.35613L13.3085 10.205L12.2374 8.34973C11.8335 7.65023 12.074 6.75258 12.7735 6.34869H12.7736C13.473 5.94486 14.3707 6.18545 14.7745 6.88488L15 7.27541L15.2255 6.88494C15.6295 6.18539 16.5271 5.94492 17.2264 6.34875C17.5653 6.54439 17.8077 6.86027 17.9089 7.2382C18.0103 7.61613 17.9582 8.01094 17.7626 8.34979L12.739 17.0508H15.9077L17.5992 19.9805H6.47461ZM23.5254 19.9805H22.3353L23.2999 21.6513C23.7038 22.3507 23.4633 23.2484 22.7638 23.6522C22.5381 23.7826 22.2875 23.8492 22.0337 23.8492C21.9064 23.8492 21.7785 23.8325 21.6522 23.7986C21.2742 23.6973 20.9583 23.4549 20.7627 23.116L15.6765 14.3065L17.3679 11.3769L20.6439 17.0508H23.5254C24.3331 17.0508 24.9902 17.7079 24.9902 18.5156C24.9902 19.3233 24.3331 19.9805 23.5254 19.9805Z" fill="#0295FF"/>
</svg>
