<svg width="16" height="17" viewBox="0 0 16 17" fill="none" xmlns="http://www.w3.org/2000/svg">
<path d="M3.11833 12.7742H14.453C14.4892 12.7742 14.5218 12.7707 14.5544 12.7603C14.5581 12.7603 14.5581 12.7603 14.5617 12.7603C14.8044 12.7603 15 12.5722 15 12.3388V0.421511C14.9964 0.188112 14.8008 0 14.5581 0H3.11833C1.9519 0 1.00282 0.912693 1.00282 2.0344C1.00282 2.04833 1.00644 2.06227 1.00644 2.07969C1.00644 3.11779 0.99195 12.6418 1.00644 13.8924C1.00644 13.9168 1.00282 13.9412 1.00282 13.9656C1.00282 15.0455 1.88308 15.9268 2.98793 15.9965C3.00966 16 3.03139 16.0035 3.05313 16.0035H14.5617C14.8044 16.0035 15 15.8154 15 15.582V13.9935C15 13.7601 14.8044 13.572 14.5617 13.572C14.319 13.572 14.1234 13.7601 14.1234 13.9935V15.1605H3.11833C2.4518 15.1605 1.90843 14.6519 1.88307 14.0178C1.88307 14.0074 1.8867 13.9969 1.8867 13.983C1.8867 13.9656 1.8867 13.9342 1.8867 13.8959C1.9193 13.2724 2.45905 12.7742 3.11833 12.7742ZM11.9716 5.50403C11.9716 5.32636 12.1201 5.18354 12.3049 5.18354H13.4749C13.6597 5.18354 13.8082 5.32636 13.8082 5.50403C13.8082 5.68169 13.6597 5.82451 13.4749 5.82451H12.6382V6.145H13.1381C13.3228 6.145 13.4713 6.28783 13.4713 6.46549C13.4713 6.64315 13.3228 6.78598 13.1381 6.78598H12.6382V7.10646H13.4749C13.6597 7.10646 13.8082 7.24929 13.8082 7.42695C13.8082 7.60461 13.6597 7.74744 13.4749 7.74744H12.3049C12.1201 7.74744 11.9716 7.60461 11.9716 7.42695V5.50403ZM9.79453 5.50403C9.79453 5.32636 9.94305 5.18354 10.1278 5.18354H11.2978C11.4826 5.18354 11.6311 5.32636 11.6311 5.50403C11.6311 5.68169 11.4826 5.82451 11.2978 5.82451H10.4611V6.145H10.9646C11.1493 6.145 11.2978 6.28783 11.2978 6.46549C11.2978 6.64315 11.1493 6.78598 10.9646 6.78598H10.4611V7.10646H11.2978C11.4826 7.10646 11.6311 7.24929 11.6311 7.42695C11.6311 7.60461 11.4826 7.74744 11.2978 7.74744H10.1278C9.94305 7.74744 9.79453 7.60461 9.79453 7.42695V5.50403ZM7.62105 5.50403C7.62105 5.32636 7.76957 5.18354 7.95432 5.18354H8.62447C9.31636 5.18354 9.70396 5.94644 9.291 6.46897C9.39606 6.60483 9.45764 6.77204 9.45764 6.9497V7.43392C9.45764 7.61158 9.30912 7.75441 9.12437 7.75441C8.93963 7.75441 8.79111 7.61158 8.79111 7.43392V6.9497C8.79111 6.86261 8.71503 6.78946 8.62447 6.78946H8.29121V7.43392C8.29121 7.61158 8.14268 7.75441 7.95794 7.75441C7.77319 7.75441 7.62467 7.61158 7.62467 7.43392V5.50403H7.62105ZM5.44758 5.50403C5.44758 5.32636 5.5961 5.18354 5.78084 5.18354H6.9509C7.13564 5.18354 7.28416 5.32636 7.28416 5.50403C7.28416 5.68169 7.13564 5.82451 6.9509 5.82451H6.11411V6.145H6.61401C6.79875 6.145 6.94727 6.28783 6.94727 6.46549C6.94727 6.64315 6.79875 6.78598 6.61401 6.78598H6.11411V7.43043C6.11411 7.6081 5.96559 7.75092 5.78084 7.75092C5.5961 7.75092 5.44758 7.6081 5.44758 7.43043V5.50403ZM3.41537 2.0344C3.41537 1.801 3.61099 1.61289 3.85369 1.61289C4.0964 1.61289 4.29201 1.801 4.29201 2.0344V4.73416C4.28114 4.77596 4.2739 4.81776 4.2739 4.85957V8.07489C4.2739 8.12018 4.28114 8.16198 4.29201 8.2003V10.6005C4.29201 10.8339 4.0964 11.022 3.85369 11.022C3.61099 11.022 3.41537 10.8339 3.41537 10.6005V2.0344Z" fill="#808191"/>
<path d="M8.92465 5.98471C8.92465 5.89413 8.83588 5.82446 8.7302 5.82446H8.34131V6.14495H8.7302C8.84011 6.14495 8.92465 6.07528 8.92465 5.98471Z" fill="#808191"/>
</svg>
