<svg width="16" height="16" viewBox="0 0 16 16" fill="none" xmlns="http://www.w3.org/2000/svg">
<g clip-path="url(#clip0)">
<path d="M15.1466 7.18667L13.3333 5.374L11.52 7.18733C11.2066 7.50133 10.6666 7.27933 10.6666 6.83333V1.16667C10.6666 0.523333 11.19 0 11.8333 0H14.8333C15.4766 0 16 0.523333 16 1.16667V6.83333C16 7.28267 15.4573 7.498 15.1466 7.18667Z" fill="#808191"/>
<path d="M8.16671 0H6.50004C5.86004 0 5.33337 0.526667 5.33337 1.16667V14.8333C5.33337 15.4733 5.86004 16 6.50004 16H8.16671C8.80671 16 9.33337 15.4733 9.33337 14.8333V1.16667C9.33337 0.526667 8.80671 0 8.16671 0ZM8.00004 13.3333C8.00004 13.7 7.70004 14 7.33337 14C6.96671 14 6.66671 13.7 6.66671 13.3333V2.66667C6.66671 2.3 6.96671 2 7.33337 2C7.70004 2 8.00004 2.3 8.00004 2.66667V13.3333Z" fill="#808191"/>
<path d="M0 14V14.8333C0 15.4733 0.526667 16 1.16667 16H2.83333C3.47333 16 4 15.4733 4 14.8333V14H0Z" fill="#808191"/>
<path d="M4 12.6667V5.16667C4 4.52667 3.47333 4 2.83333 4H1.16667C0.526667 4 0 4.52667 0 5.16667V12.6667H4Z" fill="#808191"/>
<path d="M10.6666 14V14.8333C10.6666 15.4733 11.1933 16 11.8333 16H13.5C14.14 16 14.6666 15.4733 14.6666 14.8333V14H10.6666Z" fill="#808191"/>
<path d="M14.6666 8.45999V12.6667H10.6666V8.59333C10.8333 8.63999 11 8.66666 11.1666 8.66666C11.6466 8.66666 12.1133 8.47999 12.46 8.12666L13.3333 7.25999L14.2066 8.12666C14.3466 8.26666 14.5 8.37333 14.6666 8.45999Z" fill="#808191"/>
</g>
<defs>
<clipPath id="clip0">
<rect width="16" height="16" fill="white"/>
</clipPath>
</defs>
</svg>
