<svg width="52" height="52" viewBox="0 0 52 52" fill="none" xmlns="http://www.w3.org/2000/svg">
<path d="M42.3812 0H37.9045V15.1511C37.9045 16.2156 36.8282 16.742 35.9943 15.4054L33.0374 10.6744L30.0805 15.4054C29.2408 16.736 28.1704 16.2156 28.1704 15.1511V0H13.1612C9.53291 0.00975776 6.59686 2.95379 6.59686 6.58205V45.4357C6.60662 49.057 9.53986 51.9902 13.1612 52H42.3871C43.1864 51.9987 43.9524 51.6796 44.5161 51.1129C45.0828 50.5492 45.4019 49.7832 45.4032 48.984V3.02195C45.3999 1.35426 44.0489 0.00325259 42.3812 0ZM42.943 44.1938L14.4267 44.2293C13.8052 44.2722 13.3106 44.7668 13.2678 45.3882C13.2203 46.0757 13.7392 46.6715 14.4267 46.719H42.943L42.9371 49.0135C42.9374 49.1503 42.8844 49.2819 42.7893 49.3802C42.691 49.4753 42.5594 49.5283 42.4226 49.528H13.1612C10.9157 49.528 9.09544 47.7078 9.09544 45.4623C9.09544 43.2168 10.9157 41.3966 13.1612 41.3966H42.4226C42.7087 41.3998 42.9398 41.6309 42.943 41.917V44.1938Z" fill="#43B871"/>
</svg>
