<svg width="197" height="64" viewBox="0 0 197 64" fill="none" xmlns="http://www.w3.org/2000/svg">
<g clip-path="url(#clip0)">
<path d="M12.2464 28.7558H8.23264L12.2464 34.1038V63.6202H0.0596924V0L7.24831 9.58339L8.33704 11.0351L12.2464 16.2446V28.7558Z" fill="#43A66C"/>
<path d="M47.7868 63.6201L44.6063 63.6425H44.5728L34.461 63.7156L32.7421 61.4228L16.6367 39.9575L16.5398 39.8283L15.4212 38.3447L14.6047 37.2563C14.8713 37.4081 15.1453 37.5542 15.4212 37.6909C16.1184 38.0429 16.8362 38.3519 17.5707 38.6163C21.3901 39.9962 25.5318 40.2029 29.4685 39.2101L29.9327 39.8283L32.7291 43.5635L44.5597 59.3341L44.5933 59.381L47.7868 63.6201Z" fill="#43A66C"/>
<path d="M24.8358 50.8859L15.9787 39.1314L15.3858 38.3203L14.6103 37.2563C14.9962 37.4287 15.3858 37.586 15.7829 37.734C18.2643 38.6611 20.8909 39.1343 23.5383 39.1314C25.356 39.1624 27.1699 38.9533 28.9335 38.5095L29.5953 39.4068L32.8111 43.659L37.3879 49.7395" fill="url(#paint0_linear)"/>
<path d="M0.050354 0H12.2539V22.6566L0.050354 9.04203V0Z" fill="url(#paint1_linear)"/>
<path d="M44.5131 18.8123V21.1032C44.3623 23.7999 43.6591 26.4362 42.4475 28.8471C41.1443 31.4238 39.307 33.6902 37.0593 35.4938C34.8115 37.2974 32.2054 38.5964 29.4163 39.3034C25.4809 40.292 21.3421 40.0846 17.5241 38.7078C16.7893 38.4419 16.0709 38.1323 15.3728 37.7805C15.0968 37.6438 14.8247 37.4977 14.5562 37.3459L12.1867 34.1933L8.15431 28.716L23.3406 28.8359L24.4946 28.8228C29.0248 28.583 32.6825 24.6848 32.6825 19.9849C32.683 18.8211 32.4552 17.6685 32.0121 16.5932C31.569 15.5179 30.9193 14.5409 30.1002 13.718C29.2811 12.8951 28.3086 12.2425 27.2383 11.7975C26.168 11.3525 25.0209 11.1239 23.8626 11.1246H12.1867V16.334L8.27176 11.1246L7.18302 9.67286L0 0.0894739V-0.000440674H24.4331C27.3344 -0.00675667 30.2029 0.615457 32.8432 1.8238C35.4835 3.03214 37.8335 4.79821 39.7331 7.00165C40.8147 8.2547 41.7354 9.63922 42.4736 11.1227C43.67 13.5187 44.3641 16.1359 44.5131 18.8123Z" fill="#43B871"/>
</g>
<path d="M83.4645 55.4245C82.0855 57.8428 80.2198 59.7975 77.8675 61.2887C75.5557 62.78 72.7166 63.5256 69.3503 63.5256C67.079 63.5256 64.97 63.1427 63.0232 62.3769C61.117 61.5709 59.4541 60.4625 58.0345 59.0519C56.615 57.6412 55.4997 55.9888 54.6885 54.0945C53.9179 52.1599 53.5326 50.044 53.5326 47.7466C53.5326 45.6105 53.9179 43.5953 54.6885 41.7011C55.4591 39.7665 56.5339 38.0939 57.9129 36.6832C59.2918 35.2323 60.9142 34.0836 62.7798 33.2373C64.6861 32.3909 66.7748 31.9677 69.0461 31.9677C71.439 31.9677 73.5683 32.3707 75.434 33.1768C77.2997 33.9426 78.8611 35.0308 80.1184 36.4414C81.3757 37.8117 82.3289 39.444 82.9778 41.3383C83.6267 43.2326 83.9512 45.2881 83.9512 47.5048C83.9512 47.7869 83.9512 48.0288 83.9512 48.2303C83.9106 48.4721 83.8904 48.6938 83.8904 48.8953C83.8498 49.0968 83.8295 49.3185 83.8295 49.5603H61.3806C61.5428 50.7694 61.8673 51.8173 62.354 52.704C62.8812 53.5504 63.5099 54.2759 64.2399 54.8804C65.0105 55.4447 65.842 55.8679 66.7343 56.15C67.6265 56.3918 68.5391 56.5127 69.4719 56.5127C71.2971 56.5127 72.7977 56.1097 73.9739 55.3036C75.1906 54.4572 76.1437 53.4093 76.8332 52.1599L83.4645 55.4245ZM76.2249 43.9379C76.1843 43.414 76.0018 42.8296 75.6773 42.1847C75.3934 41.5398 74.9473 40.9353 74.3389 40.371C73.7711 39.8068 73.0411 39.3433 72.1488 38.9806C71.2971 38.6178 70.2628 38.4365 69.0461 38.4365C67.3426 38.4365 65.842 38.9201 64.5441 39.8874C63.2463 40.8547 62.3337 42.2049 61.8064 43.9379H76.2249Z" fill="#43B871"/>
<path d="M107.711 59.4146H107.224C106.291 60.5431 105.156 61.5104 103.817 62.3165C102.52 63.1226 100.836 63.5256 98.7679 63.5256C97.2267 63.5256 95.7666 63.2636 94.3876 62.7397C93.0492 62.256 91.873 61.5709 90.8591 60.6842C89.8451 59.7975 89.0542 58.7294 88.4864 57.48C87.9186 56.2306 87.6347 54.8603 87.6347 53.369C87.6347 51.8375 87.9389 50.4671 88.5472 49.258C89.1556 48.0086 90.0073 46.9406 91.1024 46.0539C92.1975 45.1672 93.4751 44.5022 94.9351 44.0588C96.4358 43.5752 98.0581 43.3334 99.8021 43.3334C101.749 43.3334 103.351 43.4946 104.608 43.817C105.866 44.0991 106.9 44.4014 107.711 44.7239V43.817C107.711 42.2452 107.082 40.9554 105.825 39.9478C104.568 38.8999 103.006 38.376 101.141 38.376C98.3826 38.376 96.0505 39.5247 94.1443 41.822L88.3647 37.8923C91.5283 33.9426 95.8477 31.9677 101.323 31.9677C105.947 31.9677 109.475 33.0559 111.909 35.2323C114.342 37.3684 115.559 40.5524 115.559 44.7843V62.5583H107.711V59.4146ZM107.711 50.5276C106.778 50.0843 105.805 49.7417 104.791 49.4999C103.817 49.2177 102.743 49.0767 101.566 49.0767C99.6602 49.0767 98.1798 49.4999 97.1253 50.3462C96.1113 51.1523 95.6044 52.1599 95.6044 53.369C95.6044 54.5781 96.0911 55.5454 97.0644 56.2709C98.0784 56.9964 99.2343 57.3591 100.532 57.3591C101.587 57.3591 102.56 57.1777 103.452 56.815C104.345 56.412 105.095 55.9082 105.703 55.3036C106.352 54.6587 106.839 53.9333 107.163 53.1272C107.528 52.2808 107.711 51.4143 107.711 50.5276Z" fill="#43B871"/>
<path d="M118.138 32.935H127.203L134.625 51.7972H135.051L142.534 32.935H151.537L138.701 62.5583H130.853L118.138 32.935Z" fill="#43B871"/>
<path d="M168.389 31.9677C170.701 31.9677 172.81 32.3707 174.716 33.1768C176.663 33.9426 178.326 35.0308 179.705 36.4414C181.124 37.8117 182.219 39.4642 182.99 41.3988C183.801 43.3334 184.207 45.4493 184.207 47.7466C184.207 50.044 183.801 52.1599 182.99 54.0945C182.219 56.0291 181.124 57.7017 179.705 59.1123C178.326 60.4827 176.663 61.5709 174.716 62.3769C172.81 63.1427 170.701 63.5256 168.389 63.5256C166.077 63.5256 163.948 63.1427 162.001 62.3769C160.095 61.5709 158.432 60.4827 157.012 59.1123C155.633 57.7017 154.538 56.0291 153.727 54.0945C152.957 52.1599 152.571 50.044 152.571 47.7466C152.571 45.4493 152.957 43.3334 153.727 41.3988C154.538 39.4642 155.633 37.8117 157.012 36.4414C158.432 35.0308 160.095 33.9426 162.001 33.1768C163.948 32.3707 166.077 31.9677 168.389 31.9677ZM168.389 56.2104C169.403 56.2104 170.376 56.0291 171.309 55.6663C172.283 55.2633 173.134 54.6991 173.864 53.9736C174.594 53.2481 175.162 52.3614 175.568 51.3135C176.014 50.2656 176.237 49.0767 176.237 47.7466C176.237 46.4166 176.014 45.2276 175.568 44.1798C175.162 43.1318 174.594 42.2452 173.864 41.5197C173.134 40.7942 172.283 40.2501 171.309 39.8874C170.376 39.4844 169.403 39.2828 168.389 39.2828C167.334 39.2828 166.341 39.4844 165.408 39.8874C164.475 40.2501 163.644 40.7942 162.914 41.5197C162.184 42.2452 161.595 43.1318 161.149 44.1798C160.744 45.2276 160.541 46.4166 160.541 47.7466C160.541 49.0767 160.744 50.2656 161.149 51.3135C161.595 52.3614 162.184 53.2481 162.914 53.9736C163.644 54.6991 164.475 55.2633 165.408 55.6663C166.341 56.0291 167.334 56.2104 168.389 56.2104Z" fill="#43B871"/>
<path d="M189.03 62.5583V19.272H197V62.5583H189.03Z" fill="#43B871"/>
<defs>
<linearGradient id="paint0_linear" x1="29.4909" y1="26.6895" x2="24.7402" y2="49.3464" gradientUnits="userSpaceOnUse">
<stop offset="0.2" stop-color="#43887E"/>
<stop offset="0.44" stop-color="#438D79" stop-opacity="0.64"/>
<stop offset="0.77" stop-color="#439373" stop-opacity="0.18"/>
<stop offset="0.92" stop-color="#439571" stop-opacity="0"/>
</linearGradient>
<linearGradient id="paint1_linear" x1="0.430665" y1="14.0061" x2="14.1975" y2="7.62205" gradientUnits="userSpaceOnUse">
<stop offset="0.16" stop-color="#43AF71" stop-opacity="0"/>
<stop offset="0.22" stop-color="#43AD71" stop-opacity="0.06"/>
<stop offset="0.31" stop-color="#43A971" stop-opacity="0.22"/>
<stop offset="0.43" stop-color="#43A371" stop-opacity="0.48"/>
<stop offset="0.56" stop-color="#439971" stop-opacity="0.84"/>
<stop offset="0.62" stop-color="#439571"/>
</linearGradient>
<clipPath id="clip0">
<rect width="47.7868" height="63.7157" fill="white"/>
</clipPath>
</defs>
</svg>
