<svg width="52" height="52" viewBox="0 0 52 52" fill="none" xmlns="http://www.w3.org/2000/svg">
<g clip-path="url(#clip0)">
<path d="M25.9899 2.57544C11.6593 2.64198 0 14.3548 0 28.6849C0 33.0369 1.09111 37.3271 3.15439 41.1287V34.2258C3.15439 32.9535 3.60722 31.7735 4.40097 30.7611C4.33528 30.0727 4.30145 29.3797 4.30145 28.6849C4.30145 16.7155 14.0397 6.93255 25.9899 6.87698C37.9599 6.93237 47.6982 16.7155 47.6982 28.6849C47.6982 29.4544 47.6555 30.2212 47.575 30.9828C48.2649 31.9441 48.6544 33.0456 48.6544 34.2258V41.4788C50.8426 37.5918 52.0001 33.1705 52.0001 28.6849C52 14.3548 40.3407 2.64198 25.9899 2.57544Z" fill="#43B871"/>
<path d="M4.75651 33.1112C4.64667 33.4711 4.5882 33.8439 4.5882 34.226V40.8791V43.9759C4.5882 46.9849 8.17189 49.4245 12.5929 49.4245H15.9632V28.7775H12.5929C8.73333 28.7775 5.51268 30.6366 4.75651 33.1112Z" fill="#43B871"/>
<path d="M47.2205 43.976V40.7709V34.2261C47.2205 33.9913 47.1961 33.7601 47.1536 33.533C46.6532 30.8512 43.2914 28.7776 39.2158 28.7776H35.8454V49.4245H39.2158C43.6369 49.4245 47.2205 46.985 47.2205 43.976Z" fill="#43B871"/>
</g>
<defs>
<clipPath id="clip0">
<rect width="52" height="52" fill="white"/>
</clipPath>
</defs>
</svg>
