<svg width="52" height="38" viewBox="0 0 52 38" fill="none" xmlns="http://www.w3.org/2000/svg">
<path d="M52 4.66174V20.4027C52 20.4027 48.6311 21.0664 47.937 21.1537C47.2452 21.2408 45.0711 21.9428 43.4954 20.4283C41.0655 18.0994 32.432 9.51359 32.432 9.51359C32.432 9.51359 30.9435 8.05292 28.5533 9.3153C26.3592 10.4717 23.1069 12.1665 21.7484 12.8264C19.1803 14.1933 17.0518 12.0246 17.0518 10.3727C17.0518 9.0913 17.8514 8.22163 18.9944 7.58204C22.092 5.70421 28.6209 2.0395 31.3402 0.594669C32.993 -0.284445 34.184 -0.359777 36.4533 1.55195C39.2481 3.90244 41.7353 6.04498 41.7353 6.04498C41.7353 6.04498 42.5465 6.72202 43.8403 6.44934C47.0172 5.77765 52 4.66174 52 4.66174ZM17.6366 31.3332C18.0547 30.2591 17.915 29.0576 17.1134 28.2334C16.3931 27.4961 15.3415 27.3018 14.3388 27.5316C14.6193 26.5371 14.4644 25.4785 13.7403 24.7315C13.0178 23.9961 11.9682 23.798 10.9656 24.0298C11.2439 23.0368 11.0895 21.9784 10.3649 21.2335C9.23032 20.0698 7.26782 20.1197 5.97858 21.3486C4.69616 22.5792 3.87465 24.8087 5.0192 26.1211C6.16187 27.4268 7.47482 26.6323 8.47575 26.4042C8.1973 27.3973 7.36298 28.321 8.39045 29.6208C9.41698 30.9213 10.846 30.1323 11.8479 29.9063C11.5685 30.8956 10.7706 31.912 11.7587 33.1172C12.7556 34.3261 14.3884 33.682 15.4669 33.347C15.0507 34.4171 14.1598 35.5706 15.3044 36.8632C16.4472 38.1651 19.0881 37.5628 20.378 36.332C21.6646 35.1014 21.788 33.151 20.6565 31.9836C19.8753 31.1827 18.7107 30.9963 17.6366 31.3332ZM41.1745 23.1439C31.8493 13.8186 36.2354 18.2066 31.2171 13.1775C31.2171 13.1775 29.7089 11.676 27.7211 12.5482C26.3257 13.1596 24.5291 13.993 23.1774 14.6292C21.6919 15.4081 20.6229 15.6492 20.121 15.6459C17.2494 15.6271 14.9195 13.319 14.9195 10.4502C14.9195 8.58916 15.9076 6.9689 17.3811 6.04918C19.4533 4.61526 24.2229 2.07832 24.2229 2.07832C24.2229 2.07832 22.7699 0.237106 19.5868 0.237106C16.4048 0.237106 9.75649 4.59249 9.75649 4.59249C9.75649 4.59249 7.87047 5.80052 5.18193 4.71241L0 2.90792V20.92C0 20.92 1.47967 21.3483 2.8092 21.8914C3.10947 21.035 3.59399 20.2443 4.2661 19.5911C6.4718 17.4902 10.1278 17.4684 12.1346 19.5348C12.7391 20.1629 13.161 20.9123 13.3763 21.7406C14.1849 21.9902 14.9173 22.4323 15.5059 23.0388C16.1123 23.6627 16.5326 24.4162 16.7496 25.2404C17.5573 25.4902 18.2887 25.934 18.8793 26.5408C19.5444 27.2267 19.9874 28.0551 20.1943 28.9527C21.0386 29.1986 21.8016 29.6562 22.4161 30.2844C23.6221 31.5232 24.0502 33.2039 23.7908 34.8251C23.7929 34.8251 23.7969 34.8251 23.7988 34.8288C23.8185 34.8546 24.546 35.6656 24.9997 36.1231C25.8888 37.013 27.3405 37.013 28.2324 36.1231C29.1183 35.2335 29.1222 33.7845 28.2324 32.8904C28.2005 32.8586 25.0248 29.5369 25.2804 29.2793C25.5341 29.0235 29.58 33.2335 29.6554 33.3105C30.5433 34.1986 31.9941 34.1986 32.886 33.3105C33.7758 32.4209 33.7739 30.972 32.886 30.08C32.8424 30.0384 32.6602 29.8639 32.5927 29.7945C32.5927 29.7945 28.5812 26.2209 28.8865 25.9156C29.1956 25.6084 34.1784 30.2584 34.1865 30.2584C35.0822 31.065 36.4619 31.0591 37.3236 30.1969C38.162 29.3586 38.1799 28.0326 37.4367 27.139C37.4209 27.0915 33.6392 23.1394 33.9344 22.842C34.2338 22.5408 37.9757 26.3939 37.9836 26.4018C38.8695 27.2898 40.3223 27.2898 41.2143 26.4018C42.1022 25.5138 42.1022 24.0631 41.2143 23.1672C41.2022 23.1596 41.1863 23.1517 41.1745 23.1439Z" fill="#43B871"/>
</svg>
