<svg width="24" height="24" viewBox="0 0 24 24" fill="none" xmlns="http://www.w3.org/2000/svg">
<path d="M17.5034 0H6.49657C2.9143 0 0 2.9143 0 6.49657V17.5036C0 21.0857 2.9143 24 6.49657 24H17.5036C21.0857 24 24 21.0857 24 17.5036V6.49657C24 2.9143 21.0857 0 17.5034 0V0ZM22.593 17.5036C22.593 20.3098 20.3098 22.593 17.5034 22.593H6.49657C3.69012 22.593 1.40698 20.3098 1.40698 17.5036V6.49657C1.40698 3.69012 3.69012 1.40698 6.49657 1.40698H17.5036C20.3098 1.40698 22.593 3.69012 22.593 6.49657V17.5036Z" fill="white"/>
<path d="M12 5.4375C8.38146 5.4375 5.43768 8.38128 5.43768 11.9998C5.43768 15.6183 8.38146 18.5621 12 18.5621C15.6185 18.5621 18.5623 15.6183 18.5623 11.9998C18.5623 8.38128 15.6185 5.4375 12 5.4375ZM12 17.1551C9.15746 17.1551 6.84466 14.8425 6.84466 11.9998C6.84466 9.15728 9.15746 6.84448 12 6.84448C14.8427 6.84448 17.1553 9.15728 17.1553 11.9998C17.1553 14.8425 14.8427 17.1551 12 17.1551Z" fill="white"/>
<path d="M18.7192 3.10693C17.6499 3.10693 16.7801 3.97687 16.7801 5.04602C16.7801 6.11535 17.6499 6.98528 18.7192 6.98528C19.7885 6.98528 20.6585 6.11535 20.6585 5.04602C20.6585 3.97668 19.7885 3.10693 18.7192 3.10693ZM18.7192 5.57812C18.4259 5.57812 18.1871 5.33935 18.1871 5.04602C18.1871 4.7525 18.4259 4.51391 18.7192 4.51391C19.0127 4.51391 19.2515 4.7525 19.2515 5.04602C19.2515 5.33935 19.0127 5.57812 18.7192 5.57812Z" fill="white"/>
</svg>
