<svg width="48" height="48" viewBox="0 0 48 48" fill="none" xmlns="http://www.w3.org/2000/svg">
<path d="M3.1412 30.9237C1.40636 28.8871 1.65099 25.8297 3.68759 24.0949C5.72419 22.36 8.78155 22.6047 10.5164 24.6413L21.9214 38.0301C23.6562 40.0667 23.4116 43.124 21.375 44.8588C19.3384 46.5937 16.281 46.3491 14.5462 44.3125L3.1412 30.9237Z" fill="#33BF71"/>
<path d="M41.7367 4.25418C42.6511 3.14728 44.2989 3.01393 45.3794 3.95938C46.3301 4.79128 46.5278 6.19413 45.8441 7.25638L22.4968 43.5281C22.0314 44.251 21.0536 44.4333 20.3591 43.9265C16.5036 41.113 15.8152 35.6329 18.8549 31.9532L41.7367 4.25418Z" fill="#33BF71"/>
</svg>
