<svg width="13" height="17" viewBox="0 0 13 17" fill="none" xmlns="http://www.w3.org/2000/svg">
<path d="M3.23732 7.67182H2.17597L3.23732 9.09937V16.9743H0.0166016V0L1.91651 2.55664L2.20417 2.9438L3.23732 4.33417V7.67182Z" fill="#43A66C"/>
<path d="M12.6304 16.9744L11.789 16.9811H11.7806L9.10792 17.0001L8.65386 16.3889L4.39717 10.6615L4.37179 10.6262L4.07755 10.2304L3.86133 9.94434C3.93277 9.98439 4.00422 10.0235 4.07755 10.0597C4.26062 10.1535 4.44896 10.2363 4.6416 10.3077C5.65134 10.6745 6.74559 10.7296 7.78617 10.466L7.90932 10.63L8.6501 11.6275L11.7806 15.83L11.789 15.8424L12.6304 16.9744Z" fill="#43A66C"/>
<path d="M6.56406 13.5774L4.22326 10.4401L4.06721 10.2236L3.86133 9.9375C3.9638 9.98327 4.06721 10.0252 4.17156 10.0653C4.82734 10.3123 5.5214 10.4382 6.22093 10.4372C6.70144 10.4459 7.18097 10.3902 7.64704 10.2713L7.82189 10.5116L8.66797 11.6454L9.87691 13.2666" fill="url(#paint0_linear_9102_3528)"/>
<path d="M0.0126953 0H3.23812V6.04496L0.0126953 2.41264V0Z" fill="url(#paint1_linear_9102_3528)"/>
<path d="M11.7642 5.01983V5.6311C11.7243 6.35042 11.5384 7.05363 11.218 7.69662C10.666 8.80246 9.75443 9.68098 8.63747 10.1836C7.36951 10.7524 5.93435 10.8039 4.6299 10.3276C4.4373 10.2566 4.24896 10.1741 4.06585 10.0807C3.99347 10.0435 3.92108 10.0053 3.85058 9.96432L3.22542 9.12323L2.15467 7.66134L6.16882 7.69376H6.4734C7.67107 7.62892 8.63559 6.58852 8.63559 5.33548C8.63633 5.02485 8.57664 4.71712 8.45994 4.42993C8.34324 4.14274 8.17182 3.88173 7.95551 3.66186C7.73919 3.44198 7.48223 3.26757 7.19935 3.14861C6.91647 3.02965 6.61323 2.96848 6.30701 2.96861H3.22072V4.35802L2.18663 2.96861L1.89897 2.58144L0 0.023851V1.06904e-05H6.45742C7.22398 -0.00153493 7.98185 0.164537 8.67943 0.486913C9.377 0.809289 9.99788 1.28039 10.4998 1.86814C10.7858 2.20274 11.0293 2.57245 11.2246 2.96861C11.5411 3.60762 11.7248 4.30581 11.7642 5.01983Z" fill="#43B871"/>
<defs>
<linearGradient id="paint0_linear_9102_3528" x1="7.79463" y1="7.12052" x2="6.51542" y2="13.161" gradientUnits="userSpaceOnUse">
<stop offset="0.2" stop-color="#43887E"/>
<stop offset="0.44" stop-color="#438D79" stop-opacity="0.64"/>
<stop offset="0.77" stop-color="#439373" stop-opacity="0.18"/>
<stop offset="0.92" stop-color="#439571" stop-opacity="0"/>
</linearGradient>
<linearGradient id="paint1_linear_9102_3528" x1="0.113284" y1="3.73721" x2="3.7641" y2="2.06065" gradientUnits="userSpaceOnUse">
<stop offset="0.16" stop-color="#43AF71" stop-opacity="0"/>
<stop offset="0.22" stop-color="#43AD71" stop-opacity="0.06"/>
<stop offset="0.31" stop-color="#43A971" stop-opacity="0.22"/>
<stop offset="0.43" stop-color="#43A371" stop-opacity="0.48"/>
<stop offset="0.56" stop-color="#439971" stop-opacity="0.84"/>
<stop offset="0.62" stop-color="#439571"/>
</linearGradient>
</defs>
</svg>
