<svg width="122" height="44" viewBox="0 0 122 44" fill="none" xmlns="http://www.w3.org/2000/svg">
<g clip-path="url(#clip0)">
<path d="M53.7297 39.1088C52.9215 40.5448 51.7718 41.7606 50.3818 42.6489C48.9784 43.5495 47.2645 43.9998 45.2401 43.9998C43.9436 44.0136 42.6572 43.7715 41.4548 43.2874C40.3245 42.8343 39.2978 42.1579 38.4362 41.2987C37.5747 40.4395 36.8962 39.4154 36.4416 38.2878C35.9556 37.0746 35.713 35.778 35.7275 34.4716C35.7228 33.2196 35.9594 31.9785 36.4243 30.8156C37.3145 28.5417 39.0694 26.711 41.3066 25.7224C42.4875 25.2022 43.7665 24.9408 45.0572 24.9557C46.373 24.9318 47.68 25.1741 48.8993 25.6681C49.9735 26.1084 50.9357 26.7822 51.716 27.6404C52.4903 28.5029 53.079 29.5148 53.4456 30.6135C53.8448 31.8145 54.0427 33.0731 54.0311 34.3385V34.76C54.0077 34.8919 53.9953 35.0255 53.9941 35.1594C53.9693 35.2919 53.9578 35.4265 53.9595 35.5612H40.4467C40.5216 36.2221 40.7274 36.8615 41.0521 37.4422C41.3419 37.949 41.7269 38.3951 42.1862 38.7562C42.6265 39.1043 43.1298 39.3646 43.6687 39.5229C44.2024 39.6838 44.7566 39.7668 45.3142 39.7694C46.2748 39.8078 47.2239 39.5495 48.0321 39.0299C48.7388 38.5439 49.3218 37.8998 49.7344 37.1489L53.7297 39.1088ZM49.3762 32.1715C49.3364 31.8033 49.2309 31.4451 49.0649 31.1139C48.8659 30.7029 48.5929 30.3318 48.2594 30.0193C47.877 29.6594 47.4303 29.3742 46.9424 29.1787C46.3419 28.9462 45.7012 28.8347 45.0572 28.8508C44.0787 28.8314 43.1219 29.1395 42.3394 29.726C41.5368 30.3394 40.9579 31.1985 40.6914 32.1715H49.3762Z" fill="white"/>
<path d="M68.3271 41.5173H68.0331C67.4592 42.2099 66.7736 42.8023 66.0046 43.2701C65.2123 43.7632 64.1935 44.0097 62.9482 44.0097C62.0557 44.0153 61.1694 43.8608 60.3316 43.5536C59.5476 43.2671 58.8224 42.8402 58.1919 42.2939C57.5824 41.7589 57.0961 41.0988 56.7663 40.3586C56.4173 39.5779 56.2419 38.731 56.2524 37.8761C56.239 37.0118 56.4267 36.1561 56.8009 35.3764C57.1676 34.634 57.692 33.9803 58.3377 33.4608C59.0265 32.9053 59.8158 32.4868 60.6627 32.2282C61.605 31.9414 62.5857 31.8001 63.5709 31.8091C64.5418 31.789 65.5118 31.8808 66.4617 32.0828C67.0959 32.2284 67.7192 32.4178 68.3271 32.6498V32.1025C68.3342 31.6488 68.2353 31.1997 68.0385 30.7907C67.8417 30.3817 67.5522 30.0239 67.193 29.7457C66.3945 29.112 65.396 28.7826 64.3763 28.8163C62.716 28.8163 61.3158 29.5098 60.176 30.897L56.6996 28.5229C58.5972 26.1382 61.1931 24.945 64.4875 24.9434C67.2696 24.9434 69.392 25.5942 70.8547 26.8958C72.3174 28.1975 73.0488 30.1262 73.0488 32.6818V43.9505H68.3296L68.3271 41.5173ZM68.3271 36.1504C67.7714 35.8851 67.1925 35.6714 66.5976 35.5119C65.9579 35.3456 65.2993 35.2627 64.6382 35.2654C63.4852 35.2654 62.6015 35.5119 61.9871 36.005C61.6972 36.2176 61.4616 36.4953 61.2993 36.8157C61.1371 37.1361 61.0527 37.4901 61.0531 37.849C61.0452 38.1925 61.123 38.5325 61.2795 38.8385C61.4361 39.1445 61.6665 39.4068 61.95 39.6018C62.5485 40.0413 63.2751 40.2725 64.0181 40.26C65.1865 40.2687 66.311 39.8158 67.1461 39.0003C67.9054 38.2382 68.3325 37.2078 68.3345 36.1332L68.3271 36.1504Z" fill="white"/>
<path d="M74.2471 24.8991H79.8187L84.5009 36.9173H84.748L89.5289 24.8991H94.9399L86.9717 43.9507H82.208L74.2471 24.8991Z" fill="white"/>
<path d="M104.803 24.9434C106.113 24.9276 107.412 25.1697 108.628 25.6558C109.754 26.1035 110.777 26.7765 111.633 27.6333C112.489 28.4902 113.159 29.5128 113.604 30.6381C114.553 33.1061 114.553 35.8371 113.604 38.3051C113.161 39.4311 112.49 40.4542 111.634 41.3112C110.778 42.1681 109.755 42.8408 108.628 43.2874C106.168 44.2373 103.441 44.2373 100.981 43.2874C99.8541 42.8408 98.831 42.1681 97.9751 41.3112C97.1191 40.4542 96.4485 39.4311 96.0048 38.3051C95.0528 35.8377 95.0528 33.1055 96.0048 30.6381C96.4496 29.5128 97.1205 28.4902 97.9763 27.6333C98.8321 26.7765 99.8547 26.1035 100.981 25.6558C102.196 25.1699 103.495 24.9278 104.803 24.9434ZM104.803 39.5821C105.412 39.5831 106.016 39.4659 106.58 39.237C107.148 39.0071 107.664 38.665 108.097 38.2312C108.551 37.7734 108.906 37.2271 109.14 36.6263C109.654 35.2356 109.654 33.7076 109.14 32.317C108.905 31.7169 108.55 31.1708 108.097 30.7121C107.664 30.279 107.148 29.9377 106.58 29.7087C106.016 29.479 105.412 29.3609 104.803 29.3611C104.189 29.3575 103.58 29.4756 103.012 29.7087C102.45 29.9399 101.94 30.2811 101.512 30.7121C101.059 31.1708 100.704 31.7169 100.47 32.317C99.9555 33.7076 99.9555 35.2356 100.47 36.6263C100.703 37.2271 101.058 37.7734 101.512 38.2312C101.94 38.6629 102.45 39.0049 103.012 39.237C103.58 39.4692 104.189 39.5865 104.803 39.5821Z" fill="white"/>
<path d="M117.207 43.9503V16.5859H122V43.9503H117.207Z" fill="white"/>
<path d="M8.50862 19.833H5.7191L8.50862 23.5235V43.8817H0.0437012V0L5.03716 6.60937L5.79322 7.61026L8.50862 11.2046V19.833Z" fill="#43A66C"/>
<path d="M33.195 43.8815L30.9837 43.8988H30.9614L23.937 43.9481L22.7436 42.3678L11.5559 27.5615L11.4892 27.4702L10.7158 26.4472L10.1475 25.7076C10.3353 25.8111 10.5231 25.9122 10.7158 26.0059C11.197 26.2483 11.692 26.4623 12.1983 26.6468C14.8521 27.5951 17.7281 27.7375 20.463 27.0561L20.7867 27.4801L22.7337 30.0588L30.9614 40.9232L30.9837 40.9552L33.195 43.8815Z" fill="#43A66C"/>
<path d="M17.251 35.1005L11.0988 26.9898L10.6886 26.4302L10.1475 25.6906C10.4168 25.8089 10.6886 25.9174 10.9629 26.0209C12.6864 26.6595 14.5106 26.9851 16.3492 26.9824C17.6121 27.005 18.8724 26.8608 20.0974 26.5534L20.5569 27.1747L22.7807 30.1059L25.9581 34.2968" fill="url(#paint0_linear)"/>
<path d="M0.0350342 0H8.5123V15.6273L0.0350342 6.23711V0Z" fill="url(#paint1_linear)"/>
<path d="M30.9194 12.977V14.5573C30.8147 16.4169 30.3259 18.2348 29.4839 19.897C28.033 22.7558 25.6372 25.027 22.7016 26.3264C19.369 27.7967 15.5971 27.93 12.1686 26.6987C11.6624 26.5149 11.1674 26.3017 10.6861 26.0602C10.4959 25.964 10.3056 25.8654 10.1203 25.7594L8.47727 23.5851L5.66304 19.8058L16.2133 19.8896H17.0138C20.1616 19.722 22.6966 17.0324 22.6966 13.793C22.6986 12.99 22.5417 12.1945 22.235 11.452C21.9283 10.7096 21.4777 10.0348 20.9092 9.46644C20.3407 8.89803 19.6653 8.44714 18.9218 8.13961C18.1783 7.83207 17.3813 7.67394 16.5765 7.67427H8.46491V11.2662L5.74705 7.67427L4.99099 6.67337L0 0.0615371V-9.44338e-05H16.9718C18.9865 -0.00409014 20.9784 0.425235 22.8118 1.25863C24.6453 2.09203 26.2771 3.30993 27.5962 4.82935C28.3481 5.69435 28.9881 6.65013 29.5012 7.67427C30.3331 9.32622 30.8158 11.1312 30.9194 12.977Z" fill="#43B871"/>
</g>
<defs>
<linearGradient id="paint0_linear" x1="20.4853" y1="18.4082" x2="17.228" y2="34.0458" gradientUnits="userSpaceOnUse">
<stop offset="0.2" stop-color="#43887E"/>
<stop offset="0.44" stop-color="#438D79" stop-opacity="0.64"/>
<stop offset="0.77" stop-color="#439373" stop-opacity="0.18"/>
<stop offset="0.92" stop-color="#439571" stop-opacity="0"/>
</linearGradient>
<linearGradient id="paint1_linear" x1="0.299408" y1="9.66137" x2="9.8389" y2="5.20755" gradientUnits="userSpaceOnUse">
<stop offset="0.16" stop-color="#43AF71" stop-opacity="0"/>
<stop offset="0.22" stop-color="#43AD71" stop-opacity="0.06"/>
<stop offset="0.31" stop-color="#43A971" stop-opacity="0.22"/>
<stop offset="0.43" stop-color="#43A371" stop-opacity="0.48"/>
<stop offset="0.56" stop-color="#439971" stop-opacity="0.84"/>
<stop offset="0.62" stop-color="#439571"/>
</linearGradient>
<clipPath id="clip0">
<rect width="122" height="44" fill="white"/>
</clipPath>
</defs>
</svg>
