<svg width="52" height="52" viewBox="0 0 52 52" fill="none" xmlns="http://www.w3.org/2000/svg">
<path d="M34.5767 24.9834L23.779 17.1344C23.3828 16.8471 22.8567 16.8038 22.4224 17.0271C21.9846 17.2486 21.7112 17.6985 21.7112 18.1847V33.8776C21.7112 34.3691 21.9846 34.8172 22.4224 35.0387C22.6076 35.1322 22.81 35.1789 23.0142 35.1789C23.2807 35.1789 23.5506 35.0941 23.779 34.9262L34.5767 27.0841C34.9176 26.8332 35.1166 26.4456 35.1166 26.0338C35.1183 25.615 34.9141 25.2291 34.5767 24.9834Z" fill="#43B871"/>
<path d="M26.0009 0.00402832C11.6386 0.00402832 0 11.6426 0 26.0049C0 40.3619 11.6386 51.9971 26.0009 51.9971C40.3597 51.9971 52 40.3602 52 26.0049C52.0017 11.6426 40.3597 0.00402832 26.0009 0.00402832ZM26.0009 47.659C14.0404 47.659 4.34328 37.9671 4.34328 26.0049C4.34328 14.0479 14.0404 4.34385 26.0009 4.34385C37.9596 4.34385 47.655 14.0462 47.655 26.0049C47.6567 37.9671 37.9596 47.659 26.0009 47.659Z" fill="#43B871"/>
</svg>
