<svg width="16" height="16" viewBox="0 0 16 16" fill="none" xmlns="http://www.w3.org/2000/svg">
<path d="M7.53125 16V14.1146H7.29428C6.25753 14.1146 5.41406 13.2711 5.41406 12.2344C5.41406 11.1976 6.25753 10.3542 7.29428 10.3542H7.53125V8.46875H5.17709C4.91822 8.46875 4.70834 8.25888 4.70834 8V7.29428C4.70834 6.77447 4.28544 6.35156 3.76562 6.35156C3.24581 6.35156 2.82291 6.77447 2.82291 7.29428V8C2.82291 8.25888 2.61303 8.46875 2.35416 8.46875H0V15.0573C0 15.5771 0.422906 16 0.942719 16H7.53125Z" fill="white"/>
<path d="M15.0573 16C15.5771 16 16 15.5771 16 15.0573V8.46875H14.1146V8.70572C14.1146 9.74247 13.2711 10.5859 12.2344 10.5859C11.1976 10.5859 10.3542 9.74247 10.3542 8.70572V8.46875H8.46875V10.8229C8.46875 11.0818 8.25888 11.2917 8 11.2917H7.29428C6.77447 11.2917 6.35156 11.7146 6.35156 12.2344C6.35156 12.7542 6.77447 13.1771 7.29428 13.1771H8C8.25888 13.1771 8.46875 13.387 8.46875 13.6458V16H15.0573Z" fill="white"/>
<path d="M12.2344 9.64844C12.7542 9.64844 13.1771 9.22553 13.1771 8.70572V8C13.1771 7.74113 13.387 7.53125 13.6458 7.53125H16V0.942719C16 0.422906 15.5771 0 15.0573 0H8.46875V1.88541H8.70572C9.74247 1.88541 10.5859 2.72888 10.5859 3.76562C10.5859 4.80237 9.74247 5.64584 8.70572 5.64584H8.46875V7.53125H10.8229C11.0818 7.53125 11.2917 7.74113 11.2917 8V8.70572C11.2917 9.22553 11.7146 9.64844 12.2344 9.64844Z" fill="white"/>
<path d="M0.942719 0C0.422906 0 0 0.422906 0 0.942719V7.53125H1.88541V7.29428C1.88541 6.25753 2.72888 5.41406 3.76562 5.41406C4.80237 5.41406 5.64584 6.25753 5.64584 7.29428V7.53125H7.53125V5.17709C7.53125 4.91822 7.74113 4.70834 8 4.70834H8.70572C9.22553 4.70834 9.64844 4.28544 9.64844 3.76562C9.64844 3.24581 9.22553 2.82291 8.70572 2.82291H8C7.74113 2.82291 7.53125 2.61303 7.53125 2.35416V0H0.942719Z" fill="white"/>
</svg>
