<svg width="30" height="30" viewBox="0 0 30 30" fill="none" xmlns="http://www.w3.org/2000/svg">
<path d="M5.33203 10.6055H24.668V13.2422H5.33203V10.6055Z" fill="#33BF71"/>
<path d="M21.1523 25.6055H28.2422V22.9688H1.75781V25.6055H8.84766V27.3633H0V30H30V27.3633H21.1523V25.6055Z" fill="#33BF71"/>
<path d="M15.879 3.586V1.75781H19.3946V0H14.1211V3.586C11.0814 3.92848 8.57249 6.05227 7.57581 8.84766H22.4243C21.4276 6.05227 18.9187 3.92848 15.879 3.586Z" fill="#33BF71"/>
<path d="M7.08984 15H10.6055V21.2109H7.08984V15Z" fill="#33BF71"/>
<path d="M13.2422 15H16.7578V21.2109H13.2422V15Z" fill="#33BF71"/>
<path d="M19.3945 15H22.9102V21.2109H19.3945V15Z" fill="#33BF71"/>
</svg>
