<svg width="17" height="16" viewBox="0 0 17 16" fill="none" xmlns="http://www.w3.org/2000/svg">
<g clip-path="url(#clip0)">
<path d="M11.4033 4.15489C11.2944 3.97484 11.079 3.88927 10.8762 3.94579C10.6736 4.0023 10.5333 4.187 10.5333 4.39732C10.5333 4.96947 10.0679 5.4348 9.49585 5.4348C8.92383 5.4348 8.45837 4.96947 8.45837 4.39732V0.468735C8.45837 0.27916 8.34412 0.108262 8.16895 0.0357519C7.99377 -0.0368799 7.79224 0.00315909 7.6582 0.137314C7.60547 0.189927 6.35559 1.44725 5.08923 3.34679C4.34241 4.4669 3.74646 5.57799 3.31799 6.64915C2.77527 8.00621 2.5 9.30528 2.5 10.5105C2.5 13.5373 4.96265 16 7.98962 16C11.0165 16 13.4791 13.5373 13.4791 10.5105C13.4792 8.57286 12.7808 6.43455 11.4033 4.15489ZM11.1174 10.3885C11.1174 10.6474 10.9076 10.8573 10.6487 10.8573C10.3899 10.8573 10.1799 10.6474 10.1799 10.3885V9.51195L7.84595 11.8461C7.75794 11.9339 7.63879 11.9833 7.5144 11.9833C7.39014 11.9833 7.27087 11.9339 7.18298 11.8461L6.09436 10.7573L5.36072 11.491C5.17761 11.6741 4.88086 11.6741 4.69775 11.491C4.51465 11.3078 4.51465 11.0111 4.69775 10.828L5.76294 9.76292C5.94605 9.57994 6.2428 9.57994 6.4259 9.76305L7.5144 10.8517L9.51709 8.84898H8.64038C8.38147 8.84898 8.17163 8.63914 8.17163 8.38023C8.17163 8.12132 8.38147 7.91148 8.64038 7.91148H10.6488C10.9076 7.91148 11.1176 8.12144 11.1176 8.38023V10.3885H11.1174Z" fill="#808191"/>
</g>
<defs>
<clipPath id="clip0">
<rect width="16" height="16" fill="white"/>
</clipPath>
</defs>
</svg>
