<svg width="21" height="21" viewBox="0 0 21 21" fill="none" xmlns="http://www.w3.org/2000/svg">
<path d="M19.2892 15.33C18.7156 14.849 15.3517 12.7188 14.7925 12.8166C14.53 12.8632 14.3292 13.0869 13.7918 13.7281C13.5432 14.0437 13.2702 14.3392 12.9754 14.6121C12.4351 14.4816 11.9122 14.2877 11.4174 14.0346C9.47709 13.0899 7.90954 11.5219 6.96544 9.58125C6.71228 9.08648 6.51844 8.56355 6.38794 8.02331C6.66076 7.72846 6.95633 7.45549 7.27191 7.20694C7.91241 6.66947 8.13684 6.46997 8.18344 6.20616C8.28122 5.64572 6.14906 2.28309 5.67 1.70953C5.46919 1.47197 5.28675 1.3125 5.05312 1.3125C4.37587 1.3125 1.3125 5.10038 1.3125 5.59125C1.3125 5.63128 1.37812 9.57469 6.35841 14.6416C11.4253 19.6219 15.3687 19.6875 15.4087 19.6875C15.8996 19.6875 19.6875 16.6241 19.6875 15.9469C19.6875 15.7132 19.528 15.5308 19.2892 15.33Z" fill="#fff"/>
<path d="M15.0938 9.84375H16.4062C16.4047 8.45184 15.8511 7.11739 14.8668 6.13317C13.8826 5.14894 12.5482 4.59531 11.1562 4.59375V5.90625C12.2002 5.90729 13.2011 6.32247 13.9393 7.06067C14.6775 7.79887 15.0927 8.79978 15.0938 9.84375Z" fill="#fff"/>
<path d="M18.375 9.84375H19.6875C19.6849 7.58192 18.7852 5.41348 17.1859 3.81412C15.5865 2.21477 13.4181 1.31511 11.1562 1.3125V2.625C13.0701 2.62726 14.9049 3.38853 16.2582 4.74182C17.6115 6.09511 18.3727 7.92991 18.375 9.84375Z" fill="#fff"/>
</svg>
