<svg width="28" height="28" viewBox="0 0 28 28" fill="none" xmlns="http://www.w3.org/2000/svg">
<path d="M14 15.1667C13.6448 15.1626 13.2969 15.2673 13.003 15.4669C12.7092 15.6665 12.4835 15.9513 12.3564 16.283C12.2293 16.6147 12.2069 16.9774 12.2922 17.3222C12.3775 17.667 12.5663 17.9775 12.8334 18.2117V19.8334C12.8334 20.1428 12.9563 20.4395 13.1751 20.6583C13.3939 20.8771 13.6906 21 14 21C14.3094 21 14.6062 20.8771 14.825 20.6583C15.0438 20.4395 15.1667 20.1428 15.1667 19.8334V18.2117C15.4337 17.9775 15.6226 17.667 15.7078 17.3222C15.7931 16.9774 15.7707 16.6147 15.6436 16.283C15.5165 15.9513 15.2909 15.6665 14.997 15.4669C14.7032 15.2673 14.3552 15.1626 14 15.1667ZM19.8334 10.5V8.16671C19.8334 6.61961 19.2188 5.13588 18.1248 4.04192C17.0308 2.94796 15.5471 2.33337 14 2.33337C12.4529 2.33337 10.9692 2.94796 9.87523 4.04192C8.78127 5.13588 8.16669 6.61961 8.16669 8.16671V10.5C7.23843 10.5 6.34819 10.8688 5.69181 11.5252C5.03544 12.1815 4.66669 13.0718 4.66669 14V22.1667C4.66669 23.095 5.03544 23.9852 5.69181 24.6416C6.34819 25.298 7.23843 25.6667 8.16669 25.6667H19.8334C20.7616 25.6667 21.6518 25.298 22.3082 24.6416C22.9646 23.9852 23.3333 23.095 23.3333 22.1667V14C23.3333 13.0718 22.9646 12.1815 22.3082 11.5252C21.6518 10.8688 20.7616 10.5 19.8334 10.5ZM10.5 8.16671C10.5 7.23845 10.8688 6.34821 11.5251 5.69183C12.1815 5.03546 13.0718 4.66671 14 4.66671C14.9283 4.66671 15.8185 5.03546 16.4749 5.69183C17.1313 6.34821 17.5 7.23845 17.5 8.16671V10.5H10.5V8.16671ZM21 22.1667C21 22.4761 20.8771 22.7729 20.6583 22.9917C20.4395 23.2105 20.1428 23.3334 19.8334 23.3334H8.16669C7.85727 23.3334 7.56052 23.2105 7.34173 22.9917C7.12294 22.7729 7.00002 22.4761 7.00002 22.1667V14C7.00002 13.6906 7.12294 13.3939 7.34173 13.1751C7.56052 12.9563 7.85727 12.8334 8.16669 12.8334H19.8334C20.1428 12.8334 20.4395 12.9563 20.6583 13.1751C20.8771 13.3939 21 13.6906 21 14V22.1667Z" fill="#33BF71"/>
</svg>
