<svg width="75" height="25" viewBox="0 0 75 25" fill="none" xmlns="http://www.w3.org/2000/svg">
<g clip-path="url(#clip0_1457_1718)">
<path d="M4.66305 10.9476H3.13497L4.66305 12.9837V24.2209H0.0234375V0L2.76022 3.6485L3.17471 4.2012L4.66305 6.18448V10.9476Z" fill="#43A66C"/>
<path d="M18.1928 24.2205L16.982 24.2291H16.9692L13.1196 24.2569L12.4652 23.384L6.33368 15.212L6.29678 15.1628L5.87093 14.5979L5.56006 14.1836C5.66155 14.2414 5.76589 14.297 5.87093 14.349C6.13635 14.483 6.40964 14.6007 6.68927 14.7013C8.14335 15.2267 9.72013 15.3054 11.2189 14.9274L11.3956 15.1628L12.4602 16.5848L16.9643 22.5888L16.977 22.6067L18.1928 24.2205Z" fill="#43A66C"/>
<path d="M9.45522 19.3725L6.08321 14.8975L5.85751 14.5887L5.56226 14.1836C5.70917 14.2492 5.85751 14.3091 6.00869 14.3654C6.95339 14.7184 7.95334 14.8986 8.96123 14.8975C9.65326 14.9092 10.3438 14.8296 11.0152 14.6607L11.2672 15.0023L12.4915 16.6212L14.2339 18.9361" fill="url(#paint0_linear_1457_1718)"/>
<path d="M0.0197754 0H4.66578V8.62561L0.0197754 3.4424V0Z" fill="url(#paint1_linear_1457_1718)"/>
<path d="M16.9466 7.16174V8.03393C16.8892 9.06057 16.6215 10.0642 16.1602 10.9821C15.6641 11.9631 14.9646 12.8259 14.1089 13.5126C13.2531 14.1992 12.2609 14.6938 11.1991 14.9629C9.70086 15.3393 8.12517 15.2604 6.67162 14.7362C6.39186 14.6349 6.11836 14.5171 5.85257 14.3831C5.74753 14.3311 5.6439 14.2755 5.5417 14.2177L4.63961 13.0175L3.10443 10.9322L8.88603 10.9778L9.32536 10.9728C11.05 10.8816 12.4426 9.39748 12.4426 7.60818C12.4428 7.16509 12.356 6.7263 12.1873 6.31691C12.0186 5.90752 11.7713 5.53556 11.4595 5.22228C11.1476 4.909 10.7774 4.66055 10.3699 4.49114C9.96243 4.32173 9.52573 4.23467 9.08476 4.23495H4.63961V6.21824L3.14915 4.23495L2.73465 3.68226L0 0.0337613V-0.000470157H9.30194C10.4065 -0.00287473 11.4986 0.234008 12.5038 0.694037C13.5089 1.15407 14.4036 1.82643 15.1268 2.6653C15.5386 3.14235 15.8891 3.66945 16.1702 4.23424C16.6256 5.14641 16.8899 6.1428 16.9466 7.16174Z" fill="#43B871"/>
</g>
<path d="M31.7758 21.1006C31.2508 22.0212 30.5405 22.7654 29.6449 23.3331C28.7648 23.9009 27.6839 24.1847 26.4023 24.1847C25.5376 24.1847 24.7347 24.039 23.9935 23.7474C23.2678 23.4405 22.6347 23.0186 22.0943 22.4815C21.5539 21.9445 21.1293 21.3154 20.8204 20.5942C20.5271 19.8577 20.3804 19.0521 20.3804 18.1775C20.3804 17.3643 20.5271 16.5971 20.8204 15.8759C21.1138 15.1394 21.523 14.5026 22.048 13.9656C22.573 13.4132 23.1906 12.9759 23.9009 12.6536C24.6266 12.3314 25.4218 12.1703 26.2865 12.1703C27.1975 12.1703 28.0082 12.3237 28.7185 12.6306C29.4287 12.9222 30.0232 13.3365 30.5019 13.8735C30.9806 14.3952 31.3434 15.0166 31.5905 15.7378C31.8375 16.459 31.9611 17.2415 31.9611 18.0855C31.9611 18.1929 31.9611 18.2849 31.9611 18.3617C31.9456 18.4537 31.9379 18.5381 31.9379 18.6148C31.9225 18.6916 31.9147 18.7759 31.9147 18.868H23.3682C23.43 19.3283 23.5535 19.7273 23.7388 20.0648C23.9395 20.3871 24.1788 20.6633 24.4568 20.8934C24.7501 21.1082 25.0667 21.2694 25.4064 21.3768C25.7461 21.4688 26.0935 21.5149 26.4486 21.5149C27.1435 21.5149 27.7148 21.3614 28.1626 21.0545C28.6258 20.7323 28.9887 20.3334 29.2512 19.8577L31.7758 21.1006ZM29.0196 16.7275C29.0041 16.528 28.9346 16.3055 28.8111 16.06C28.703 15.8145 28.5332 15.5844 28.3016 15.3696C28.0854 15.1547 27.8074 14.9783 27.4677 14.8402C27.1435 14.7021 26.7497 14.633 26.2865 14.633C25.638 14.633 25.0667 14.8172 24.5726 15.1854C24.0785 15.5537 23.731 16.0677 23.5303 16.7275H29.0196Z" fill="#43B871"/>
<path d="M41.0067 22.6196H40.8214C40.4662 23.0493 40.0339 23.4175 39.5243 23.7244C39.0302 24.0313 38.3894 24.1847 37.6019 24.1847C37.0152 24.1847 36.4593 24.085 35.9343 23.8855C35.4248 23.7014 34.977 23.4405 34.591 23.103C34.2049 22.7654 33.9038 22.3588 33.6877 21.8831C33.4715 21.4075 33.3634 20.8858 33.3634 20.318C33.3634 19.7349 33.4792 19.2132 33.7108 18.7529C33.9424 18.2773 34.2667 17.8706 34.6836 17.5331C35.1005 17.1955 35.5869 16.9423 36.1428 16.7735C36.7141 16.5894 37.3317 16.4973 37.9957 16.4973C38.7368 16.4973 39.3468 16.5587 39.8254 16.6815C40.3041 16.7889 40.6978 16.904 41.0067 17.0267V16.6815C41.0067 16.0831 40.7673 15.592 40.2886 15.2084C39.81 14.8095 39.2155 14.61 38.5052 14.61C37.4552 14.61 36.5674 15.0473 35.8417 15.9219L33.6413 14.4259C34.8457 12.9222 36.4902 12.1703 38.5747 12.1703C40.335 12.1703 41.6783 12.5846 42.6048 13.4132C43.5312 14.2264 43.9945 15.4386 43.9945 17.0497V23.8165H41.0067V22.6196ZM41.0067 19.2363C40.6515 19.0675 40.2809 18.9371 39.8949 18.845C39.5243 18.7376 39.1151 18.6839 38.6674 18.6839C37.9416 18.6839 37.378 18.845 36.9766 19.1672C36.5906 19.4741 36.3975 19.8577 36.3975 20.318C36.3975 20.7783 36.5828 21.1466 36.9534 21.4228C37.3394 21.699 37.7795 21.8371 38.2736 21.8371C38.6751 21.8371 39.0457 21.768 39.3854 21.6299C39.7251 21.4765 40.0107 21.2847 40.2423 21.0545C40.4894 20.809 40.6747 20.5328 40.7982 20.226C40.9372 19.9037 41.0067 19.5738 41.0067 19.2363Z" fill="#43B871"/>
<path d="M44.9763 12.5386H48.4273L51.253 19.7196H51.4152L54.264 12.5386H57.6919L52.8048 23.8165H49.817L44.9763 12.5386Z" fill="#43B871"/>
<path d="M64.1074 12.1703C64.9875 12.1703 65.7905 12.3237 66.5162 12.6306C67.2573 12.9222 67.8904 13.3365 68.4154 13.8735C68.9558 14.3952 69.3727 15.0243 69.6661 15.7608C69.9749 16.4973 70.1294 17.3029 70.1294 18.1775C70.1294 19.0521 69.9749 19.8577 69.6661 20.5942C69.3727 21.3307 68.9558 21.9675 68.4154 22.5046C67.8904 23.0263 67.2573 23.4405 66.5162 23.7474C65.7905 24.039 64.9875 24.1847 64.1074 24.1847C63.2273 24.1847 62.4166 24.039 61.6755 23.7474C60.9497 23.4405 60.3167 23.0263 59.7762 22.5046C59.2512 21.9675 58.8343 21.3307 58.5255 20.5942C58.2321 19.8577 58.0854 19.0521 58.0854 18.1775C58.0854 17.3029 58.2321 16.4973 58.5255 15.7608C58.8343 15.0243 59.2512 14.3952 59.7762 13.8735C60.3167 13.3365 60.9497 12.9222 61.6755 12.6306C62.4166 12.3237 63.2273 12.1703 64.1074 12.1703ZM64.1074 21.3998C64.4934 21.3998 64.864 21.3307 65.2191 21.1926C65.5897 21.0392 65.914 20.8244 66.1919 20.5482C66.4699 20.272 66.686 19.9344 66.8404 19.5355C67.0103 19.1365 67.0952 18.6839 67.0952 18.1775C67.0952 17.6712 67.0103 17.2185 66.8404 16.8196C66.686 16.4206 66.4699 16.0831 66.1919 15.8069C65.914 15.5307 65.5897 15.3235 65.2191 15.1854C64.864 15.032 64.4934 14.9553 64.1074 14.9553C63.7059 14.9553 63.3276 15.032 62.9725 15.1854C62.6174 15.3235 62.3008 15.5307 62.0229 15.8069C61.7449 16.0831 61.521 16.4206 61.3512 16.8196C61.1968 17.2185 61.1196 17.6712 61.1196 18.1775C61.1196 18.6839 61.1968 19.1365 61.3512 19.5355C61.521 19.9344 61.7449 20.272 62.0229 20.5482C62.3008 20.8244 62.6174 21.0392 62.9725 21.1926C63.3276 21.3307 63.7059 21.3998 64.1074 21.3998Z" fill="#43B871"/>
<path d="M71.9658 23.8165V7.33691H74.9999V23.8165H71.9658Z" fill="#43B871"/>
<defs>
<linearGradient id="paint0_linear_1457_1718" x1="11.2275" y1="10.1607" x2="9.41882" y2="18.7864" gradientUnits="userSpaceOnUse">
<stop offset="0.2" stop-color="#43887E"/>
<stop offset="0.44" stop-color="#438D79" stop-opacity="0.64"/>
<stop offset="0.77" stop-color="#439373" stop-opacity="0.18"/>
<stop offset="0.92" stop-color="#439571" stop-opacity="0"/>
</linearGradient>
<linearGradient id="paint1_linear_1457_1718" x1="0.164564" y1="5.33226" x2="5.40573" y2="2.90179" gradientUnits="userSpaceOnUse">
<stop offset="0.16" stop-color="#43AF71" stop-opacity="0"/>
<stop offset="0.22" stop-color="#43AD71" stop-opacity="0.06"/>
<stop offset="0.31" stop-color="#43A971" stop-opacity="0.22"/>
<stop offset="0.43" stop-color="#43A371" stop-opacity="0.48"/>
<stop offset="0.56" stop-color="#439971" stop-opacity="0.84"/>
<stop offset="0.62" stop-color="#439571"/>
</linearGradient>
<clipPath id="clip0_1457_1718">
<rect width="18.1929" height="24.2572" fill="white"/>
</clipPath>
</defs>
</svg>
