<svg width="30" height="30" viewBox="0 0 30 30" fill="none" xmlns="http://www.w3.org/2000/svg">
<g clip-path="url(#clip0)">
<path d="M22.4045 10.2912C18.9195 8.34195 13.3259 5.21192 4.64977 0.353962C4.06483 -0.0323472 3.39182 -0.0829723 2.81033 0.113844L17.6961 14.9996L22.4045 10.2912Z" fill="#32BBFF"/>
<path d="M2.8103 0.113281C2.70132 0.150195 2.59526 0.194727 2.49384 0.248516C1.85171 0.59586 1.37985 1.26424 1.37985 2.10957V27.8885C1.37985 28.7339 1.85165 29.4022 2.49384 29.7495C2.59509 29.8033 2.70109 29.848 2.80995 29.8851L17.6961 14.9991L2.8103 0.113281Z" fill="#32BBFF"/>
<path d="M17.6961 14.9995L2.80997 29.8856C3.39163 30.0839 4.06464 30.0371 4.64976 29.6452C13.0637 24.9336 18.5943 21.8407 22.1196 19.8749C22.2178 19.8197 22.3139 19.7658 22.409 19.7125L17.6961 14.9995Z" fill="#32BBFF"/>
<path d="M1.37985 14.9985V27.888C1.37985 28.7334 1.85165 29.4017 2.49384 29.749C2.59509 29.8028 2.70109 29.8475 2.80995 29.8846L17.6961 14.9985H1.37985Z" fill="#2C9FD9"/>
<path d="M4.64971 0.353198C3.95508 -0.105474 3.13594 -0.0924078 2.4938 0.248374L17.4701 15.2247L22.4044 10.2904C18.9194 8.34118 13.3258 5.21116 4.64971 0.353198Z" fill="#29CC5E"/>
<path d="M17.4702 14.7729L2.4938 29.7492C3.13599 30.09 3.95508 30.1097 4.64971 29.6444C13.0637 24.9329 18.5942 21.84 22.1196 19.8741C22.2177 19.819 22.3139 19.7651 22.4089 19.7117L17.4702 14.7729Z" fill="#D93F21"/>
<path d="M28.6202 14.9984C28.6202 14.2842 28.2598 13.5633 27.5455 13.1636C27.5455 13.1636 26.2096 12.4182 22.1149 10.1279L17.2444 14.9984L22.1196 19.8737C26.1694 17.5999 27.5454 16.8332 27.5454 16.8332C28.2598 16.4335 28.6202 15.7127 28.6202 14.9984Z" fill="#FFD500"/>
<path d="M27.5455 16.8333C28.2598 16.4336 28.6202 15.7128 28.6202 14.9985H17.2444L22.1196 19.8738C26.1695 17.6 27.5455 16.8333 27.5455 16.8333Z" fill="#FFAA00"/>
</g>
<defs>
<clipPath id="clip0">
<rect width="30" height="30" fill="white"/>
</clipPath>
</defs>
</svg>
