<svg width="16" height="16" viewBox="0 0 16 16" fill="none" xmlns="http://www.w3.org/2000/svg">
<path d="M7.29688 10.1372C6.90497 9.81656 7.11063 9.98478 6.33063 9.34688C5.37869 8.56775 4.06734 8.51 3.06656 9.12094L4.41531 10.2769C4.61187 10.4453 4.63469 10.7413 4.46625 10.9378C4.29716 11.1348 4.00087 11.1569 3.805 10.9888L2.055 9.48875C1.85891 9.32053 1.83584 9.02431 2.00437 8.82781C2.25375 8.53687 2.55375 8.30372 2.88781 8.1375L2.44031 5.39563C2.26687 4.44188 1.43781 3.75 0.46875 3.75C0.21 3.75 0 3.96 0 4.21875V11.5C0 11.5866 0.02375 11.6712 0.0690625 11.7447L1.53125 14.1322V15.5312C1.53125 15.79 1.74125 16 2 16H6.5C6.71 16 6.89437 15.8603 6.95125 15.6578L7.45125 13.8766C7.47619 13.7876 7.46875 14.0525 7.46875 10.5C7.46875 10.3594 7.40562 10.2263 7.29688 10.1372Z" fill="#808191"/>
<path d="M15.5313 3.75C14.5622 3.75 13.7332 4.44188 13.5597 5.39563L13.1122 8.1375C13.4463 8.30375 13.7463 8.53687 13.9957 8.82781C14.1636 9.02359 14.1419 9.31988 13.945 9.48875L12.195 10.9888C11.999 11.157 11.7028 11.1347 11.5338 10.9378C11.3653 10.7413 11.3882 10.4453 11.5847 10.2769L12.9335 9.12094C11.9444 8.51716 10.6313 8.55963 9.66941 9.34688C8.88235 9.99056 9.10469 9.80872 8.70316 10.1372C8.59441 10.2263 8.53128 10.3594 8.53128 10.5C8.53128 14.0449 8.52372 13.7872 8.54878 13.8766L9.04878 15.6578C9.10566 15.8603 9.29003 16 9.50003 16H14C14.2588 16 14.4688 15.79 14.4688 15.5312V14.1322L15.931 11.7447C15.9763 11.6712 16 11.5866 16 11.5V4.21875C16 3.96 15.79 3.75 15.5313 3.75Z" fill="#808191"/>
<path d="M10.2501 7.46875C10.5706 7.46875 10.7986 7.15194 10.693 6.84666L9.8519 4.41687L11.5358 3.12156C11.6949 2.99919 11.7585 2.78909 11.6938 2.59906C11.6292 2.40903 11.4507 2.28125 11.25 2.28125H9.11411L8.44361 0.317281C8.37883 0.127531 8.20052 0 8.00002 0C7.79952 0 7.62121 0.127531 7.55643 0.317281L6.88593 2.28125H4.75002C4.5493 2.28125 4.37087 2.40903 4.30624 2.59906C4.24162 2.78909 4.30515 2.99919 4.46424 3.12156L6.14818 4.41687L5.30708 6.84666C5.23918 7.04281 5.30837 7.26025 5.47712 7.38112C5.64583 7.50197 5.87399 7.49747 6.0378 7.37003L8.00002 5.84384L9.96224 7.37C10.0467 7.43572 10.1483 7.46875 10.2501 7.46875Z" fill="#808191"/>
</svg>
