<svg width="24" height="24" viewBox="0 0 24 24" fill="none" xmlns="http://www.w3.org/2000/svg">
<g clip-path="url(#clip0)">
<path d="M9.14953 24C7.4025 24 5.75484 23.4427 4.38469 22.388C4.12875 22.1911 3.88266 21.9759 3.65297 21.7491C2.05359 20.1684 1.24875 18.0633 1.38703 15.8212C1.49156 14.1267 2.17406 12.4931 3.30984 11.2214C4.81406 9.53719 6.88781 8.60953 9.15 8.60953C9.53859 8.60953 9.93094 8.63859 10.3172 8.69578L10.9172 8.78484V14.1094L9.99328 13.8042C9.72422 13.7152 9.44438 13.6702 9.16125 13.6702C8.44594 13.6702 7.77609 13.9505 7.275 14.4591C6.77625 14.9653 6.50766 15.6347 6.51797 16.3448C6.53156 17.2603 7.01391 18.09 7.80797 18.5653C8.17359 18.7838 8.58984 18.9117 9.01266 18.9352C9.34641 18.9534 9.67594 18.9098 9.99281 18.8053C11.0761 18.4477 11.8041 17.4427 11.8041 16.305L11.8088 10.7831V0H16.8975L16.9036 0.696562C16.9064 1.01203 16.9388 1.3275 16.9997 1.63313C17.2388 2.835 17.9128 3.90609 18.8977 4.64859C19.7719 5.30813 20.8153 5.65641 21.9141 5.65641C21.9398 5.65641 21.9398 5.65641 22.1747 5.67281L22.8286 5.71875V10.0312V10.7344L22.5942 10.7339H22.1269C22.1231 10.7339 22.1194 10.7339 22.1152 10.7339H21.8906C21.8897 10.7339 21.8883 10.7339 21.8869 10.7339C20.5317 10.7339 19.2619 10.4756 18.0033 9.94453C17.6283 9.78609 17.2631 9.60516 16.9106 9.40313L16.9266 16.3317C16.9181 18.3811 16.1081 20.3034 14.6461 21.7486C13.4597 22.9209 11.9625 23.67 10.3162 23.9137C9.93234 23.9709 9.54 24 9.14953 24ZM9.14953 10.0158C7.29375 10.0158 5.59219 10.7766 4.35844 12.158C3.43219 13.1953 2.87531 14.527 2.79 15.9075C2.6775 17.738 3.33469 19.4573 4.64109 20.7483C4.83 20.9348 5.03203 21.1116 5.24203 21.2733C6.36422 22.1372 7.71562 22.5938 9.14953 22.5938C9.47109 22.5938 9.79406 22.5698 10.1105 22.523C11.4591 22.3233 12.6858 21.7097 13.658 20.7488C14.8523 19.5684 15.5137 17.9995 15.5208 16.3308L15.4988 6.65625L16.6345 7.53234C17.2209 7.98469 17.8659 8.36063 18.5508 8.64984C19.4869 9.045 20.4305 9.26437 21.4219 9.31641V7.04531C20.1966 6.95344 19.0392 6.51797 18.0506 5.77219C16.7897 4.82156 15.9267 3.44906 15.6202 1.90828C15.5873 1.74281 15.5606 1.57547 15.5409 1.40672H13.2145V10.7836L13.2098 16.3055C13.2098 18.0506 12.0942 19.5919 10.4334 20.1403C9.94922 20.3002 9.44531 20.3667 8.93531 20.3391C8.28562 20.3034 7.64625 20.107 7.08562 19.7719C5.87016 19.0448 5.13187 17.7712 5.11125 16.3655C5.09531 15.2761 5.50734 14.2486 6.27234 13.4719C7.03969 12.6928 8.06531 12.2639 9.16031 12.2639C9.2775 12.2639 9.39375 12.2691 9.51 12.2789V10.0256C9.39 10.0191 9.26953 10.0158 9.14953 10.0158Z" fill="white"/>
</g>
<defs>
<clipPath id="clip0">
<rect width="24" height="24" fill="white"/>
</clipPath>
</defs>
</svg>
